<?xml version="1.0" encoding="utf-8"?>
<!DOCTYPE svg PUBLIC "-//W3C//DTD SVG 1.0//EN" "http://www.w3.org/TR/2001/REC-SVG-20010904/DTD/svg10.dtd">
<svg
  version="1.0"
  id="Layer_1"
  xmlns="http://www.w3.org/2000/svg"
  xmlns:xlink="http://www.w3.org/1999/xlink"
  x="0px"
  y="0px"
  width="100px"
  height="100px"
  viewBox="0 0 100 100"
  enable-background="new 0 0 100 100"
  xml:space="preserve"
>
  <path
    fill="#263238"
    d="M50,10c-22.09,0-40,17.91-40,40c0,22.094,17.91,40,40,40c22.094,0,40-17.906,40-40C90,27.91,72.094,10,50,10
	z M50,83.333c-18.408,0-33.333-14.922-33.333-33.333c0-18.409,14.925-33.333,33.333-33.333c18.412,0,33.334,14.924,33.334,33.333
	C83.334,68.411,68.412,83.333,50,83.333z"
  />
  <path
    fill="#FFB74D"
    d="M82.045,59.092c-7.313,4.771-16.014,7.575-25.378,7.575H43.333c-6.615,0-12.643,2.455-17.305,6.461
	l-0.004,0.019c1.566,1.621,3.291,3.086,5.156,4.364l0.004-0.001c3.373-2.604,7.572-4.177,12.148-4.177h13.333
	c7.302,0,14.252-1.503,20.589-4.182l0.057-0.052c2.1-2.996,3.717-6.354,4.744-9.964L82.045,59.092z"
  />
  <path
    fill="#FFB74D"
    d="M18.688,38.662c7.524-3.411,15.861-5.331,24.645-5.331h13.333c6.286,0,11.533-4.385,12.938-10.248
	l-0.036-0.062c-1.93-1.401-4.014-2.601-6.223-3.568l-0.012,0.005v0.532c0,3.679-2.992,6.673-6.667,6.673H43.333
	c-6.878,0-13.496,1.098-19.74,3.051l-0.074,0.049c-2.028,2.65-3.673,5.609-4.838,8.801L18.688,38.662z"
  />
  <path
    fill="#FFB74D"
    d="M56.667,39.997H43.333c-9.648,0-18.702,2.588-26.52,7.093L16.8,47.103c-0.082,0.956-0.133,1.92-0.133,2.897
	c0,1.617,0.121,3.205,0.344,4.76l0.043,0.055c7.491-5.132,16.537-8.151,26.28-8.151h13.333c9.534,0,17.906-5.039,22.62-12.59v-0.001
	c-1.199-2.199-2.644-4.244-4.287-6.108l-0.036,0C71.878,35.029,64.857,39.997,56.667,39.997z"
  />
  <path
    fill="#FFB74D"
    d="M43.333,60h13.333c10.261,0,19.58-3.896,26.653-10.253l0.006-0.016c-0.023-2.869-0.406-5.649-1.11-8.302
	l-0.041-0.016c-6.11,7.277-15.261,11.916-25.508,11.916H43.333c-9.241,0-17.725,3.164-24.492,8.431l-0.013,0.052
	c0.806,2.127,1.826,4.148,3.03,6.042l0.027-0.003C27.679,62.959,35.156,60,43.333,60z"
  />
</svg>
